<svg width="165" height="272" viewBox="0 0 165 272" fill="none" xmlns="http://www.w3.org/2000/svg">
<path d="M0.792908 252.343L50.759 163.291H114.425L163.771 252.343L153.512 270.879H12.4785L0.792908 252.343Z" fill="url(#paint0_linear_0_1)"/>
<path d="M50.759 85.1182V163.291M50.759 163.291L0.792908 252.343L12.4785 270.879H153.512L163.771 252.343L114.425 163.291M50.759 163.291H114.425M114.425 163.291V85.1182" stroke="url(#paint1_linear_0_1)" stroke-miterlimit="16" stroke-linecap="round" stroke-linejoin="round"/>
<path d="M160.982 55.6915L123.254 68.5375V46.6438L104.289 41.9433L82.7545 36.9605L62.2102 41.9433L41.6312 46.9709V68.5375L5.19528 55.6915L83.6727 0.570435L160.982 55.6915Z" fill="url(#paint2_linear_0_1)" stroke="black" stroke-width="0.5" stroke-linecap="round" stroke-linejoin="round"/>
<path d="M47.3114 50.0583V85.518L82.7712 78.1365L118.231 85.518V50.0583L102.14 45.074L92.7172 42.8006L82.7712 41.5963L73.6409 42.8006L63.5176 45.074L47.3114 50.0583Z" fill="url(#paint3_linear_0_1)" stroke="black" stroke-width="0.5" stroke-linecap="round" stroke-linejoin="round"/>
<path d="M25.4632 63.5547L25.4608 62.5547L23.4608 62.5597L23.4632 63.5597L25.4632 63.5547ZM24.5636 103.934L30.3227 98.1457L24.5349 92.3866L18.7758 98.1744L24.5636 103.934ZM23.4632 63.5597L23.5492 98.1626L25.5492 98.1576L25.4632 63.5547L23.4632 63.5597Z" fill="url(#paint4_linear_0_1)"/>
<defs>
<linearGradient id="paint0_linear_0_1" x1="82.2818" y1="85.1182" x2="82.2818" y2="270.879" gradientUnits="userSpaceOnUse">
<stop offset="0.276042" stop-color="#0D0D0D"/>
<stop offset="0.464424" stop-color="#FC8D26" stop-opacity="0.875"/>
<stop offset="0.854167" stop-color="#161717"/>
</linearGradient>
<linearGradient id="paint1_linear_0_1" x1="82.2818" y1="85.1182" x2="82.2818" y2="270.879" gradientUnits="userSpaceOnUse">
<stop/>
<stop offset="0.0001" stop-color="#612F0B" stop-opacity="0.539583"/>
<stop offset="0.0002" stop-color="#622F0B" stop-opacity="0.541539"/>
<stop offset="0.0003" stop-opacity="0.15"/>
<stop offset="0.442708" stop-color="#0E0D0D" stop-opacity="0.612281"/>
</linearGradient>
<linearGradient id="paint2_linear_0_1" x1="83.0888" y1="0.570435" x2="83.0888" y2="68.5375" gradientUnits="userSpaceOnUse">
<stop offset="0.84375"/>
<stop offset="1" stop-opacity="0"/>
</linearGradient>
<linearGradient id="paint3_linear_0_1" x1="82.7712" y1="41.5963" x2="82.7712" y2="85.518" gradientUnits="userSpaceOnUse">
<stop offset="0.395833" stop-color="#100F0F"/>
<stop offset="1" stop-color="#100F0F" stop-opacity="0"/>
</linearGradient>
<linearGradient id="paint4_linear_0_1" x1="24.9632" y1="63.5559" x2="25.0492" y2="98.1589" gradientUnits="userSpaceOnUse">
<stop offset="0.4375"/>
<stop offset="1" stop-opacity="0"/>
</linearGradient>
</defs>
</svg>
